<?xml version="1.0" standalone="no"?>
<!DOCTYPE svg PUBLIC "-//W3C//DTD SVG 20010904//EN"
 "http://www.w3.org/TR/2001/REC-SVG-20010904/DTD/svg10.dtd">
<svg version="1.0" xmlns="http://www.w3.org/2000/svg"
 width="242.000000pt" height="242.000000pt" viewBox="0 0 242.000000 242.000000"
 preserveAspectRatio="xMidYMid meet">
<metadata>
Created by potrace 1.14, written by Peter Selinger 2001-2017
</metadata>
<g transform="translate(0.000000,242.000000) scale(0.100000,-0.100000)"
fill="#000000" stroke="none">
<path d="M368 2022 c-43 -2 -78 -6 -79 -10 -5 -55 -3 -1716 3 -1725 4 -6 9 -9
13 -6 4 5 11 592 17 1547 l1 162 853 0 852 0 -1 -699 c-1 -463 -5 -697 -12
-693 -6 3 -5 0 1 -9 6 -9 10 -71 10 -164 l-1 -150 -845 -2 c-465 -1 -854 -4
-865 -6 -11 -3 -24 -6 -30 -6 -5 -1 -3 -7 3 -13 17 -17 1762 -19 1769 -3 2 6
5 408 6 893 2 778 0 882 -13 883 -47 2 -1618 4 -1682 1z"/>
<path d="M349 1968 c-1 -2 -3 -239 -4 -528 -2 -289 -6 -663 -9 -833 -2 -169
-2 -307 2 -307 1070 -8 1654 -7 1658 5 3 6 6 383 7 836 l2 824 -827 3 c-456 1
-829 1 -829 0z m394 -27 c4 0 7 -5 7 -10 0 -4 -23 -6 -50 -3 -60 5 -127 -16
-182 -59 -45 -35 -53 -37 -33 -6 15 24 83 63 133 77 22 6 93 7 125 1z m162
-11 c19 -1 18 -2 -3 -10 -12 -5 -29 -7 -37 -4 -9 4 -18 -2 -23 -16 -7 -19 -9
-20 -21 -6 -21 25 -7 45 31 41 18 -2 42 -4 53 -5z m198 -10 c11 -9 -38 -41
-66 -42 -12 0 -35 0 -52 2 -25 2 -22 4 15 9 37 5 46 10 48 29 3 18 8 22 25 16
12 -3 26 -10 30 -14z m94 -5 c-23 -22 -33 -18 -12 5 10 11 20 18 23 16 2 -3
-3 -12 -11 -21z m86 19 c3 -4 2 -15 -3 -25 -7 -12 -6 -19 3 -22 9 -4 9 -6 0
-6 -6 -1 -14 3 -17 8 -3 5 -16 7 -28 3 -14 -3 -19 -2 -14 6 4 7 16 12 26 12
13 0 17 5 14 15 -6 15 7 21 19 9z m288 -11 c12 -12 1 -43 -15 -43 -7 0 -19 11
-26 25 -15 27 -30 31 -48 13 -7 -7 -12 -8 -12 -2 0 6 3 14 7 18 10 9 82 1 94
-11z m402 8 c4 -1 7 -6 7 -12 0 -13 -77 -6 -91 8 -7 7 44 10 84 4z m-1486 -23
c-3 -8 -6 -5 -6 6 -1 11 2 17 5 13 3 -3 4 -12 1 -19z m1368 8 c11 -2 23 -5 27
-5 5 -1 25 -18 47 -39 81 -78 74 -190 -15 -252 -67 -45 -171 -20 -200 49 -15
36 -19 171 -5 171 18 0 32 -30 33 -68 0 -50 13 -74 23 -43 7 22 46 38 64 26
17 -10 13 -21 -14 -33 -48 -22 -23 -92 33 -92 85 1 135 95 98 183 -26 62 -88
96 -186 102 -15 0 -80 -16 -115 -31 -18 -7 -18 -6 -6 9 7 9 28 21 45 27 29 9
126 7 171 -4z m-1431 -38 c25 -38 26 -43 13 -72 -18 -39 -30 -76 -24 -76 3 0
12 16 22 36 21 45 38 51 81 28 l35 -19 -29 -7 c-129 -34 -127 -274 4 -405 44
-45 49 -53 31 -53 -27 1 -59 24 -49 35 4 5 -1 5 -10 2 -11 -4 -17 -2 -15 5 1
7 -2 13 -8 13 -5 1 -22 7 -36 14 -20 10 -32 10 -48 2 -18 -10 -21 -9 -21 8 0
21 25 35 43 25 7 -4 22 -16 35 -27 12 -11 22 -16 22 -10 0 6 -6 16 -14 22 -24
20 -64 113 -76 176 -9 46 -9 82 1 155 14 114 15 149 5 173 -16 33 11 17 38
-25z m1437 0 c50 -28 59 -55 28 -79 -28 -22 -50 -24 -67 -7 -15 15 -16 42 -2
33 6 -4 17 -4 25 -1 20 7 1 50 -29 64 -11 6 -15 11 -7 11 7 1 31 -9 52 -21z
m-488 -28 c30 0 37 -4 37 -20 0 -18 -7 -20 -57 -20 -281 -1 -446 -8 -458 -21
-9 -9 -16 -49 -20 -109 -3 -52 -7 -95 -8 -96 -1 -1 -18 -5 -38 -9 -46 -9 -69
12 -69 64 0 52 -18 101 -48 133 -25 27 -45 36 -129 58 -105 27 -40 31 355 26
218 -4 414 -6 435 -6z m238 1 c4 -1 10 -30 14 -66 3 -36 11 -65 15 -65 5 0 7
6 5 13 -9 27 -13 77 -6 77 9 0 24 -130 16 -138 -3 -3 -5 4 -5 16 0 12 -4 22
-9 22 -6 0 -8 -17 -5 -37 5 -36 3 -34 -24 23 -33 68 -59 92 -114 101 -31 4
-38 10 -38 29 0 21 5 23 53 26 45 3 72 2 98 -1z m-954 -61 c16 -10 16 -11 -2
-5 -11 4 -25 8 -32 9 -7 1 -15 5 -19 9 -10 10 34 0 53 -13z m500 -12 c-3 -8
-6 -5 -6 6 -1 11 2 17 5 13 3 -3 4 -12 1 -19z m88 10 c5 4 5 1 1 -6 -6 -10
-11 -10 -22 -1 -11 9 -14 9 -14 -1 0 -8 -3 -11 -6 -7 -12 12 7 28 20 18 7 -6
17 -7 21 -3z m122 -3 c0 -8 -4 -12 -9 -9 -5 3 -6 10 -3 15 9 13 12 11 12 -6z
m-317 -3 c0 -4 -28 -8 -62 -9 -69 -2 -88 -16 -80 -58 2 -14 0 -25 -6 -25 -6 0
-9 12 -7 28 4 26 13 67 14 67 9 5 141 2 141 -3z m90 -1 c0 -3 -18 -7 -40 -7
-22 -1 -40 3 -40 7 0 5 18 8 40 7 22 -1 40 -4 40 -7z m50 5 c0 -3 -4 -8 -10
-11 -5 -3 -10 -1 -10 4 0 6 5 11 10 11 6 0 10 -2 10 -4z m90 0 c0 -3 -4 -8
-10 -11 -5 -3 -10 -1 -10 4 0 6 5 11 10 11 6 0 10 -2 10 -4z m-313 -66 c-1
-12 -5 -16 -10 -11 -5 5 -6 14 -3 20 11 16 15 13 13 -9z m143 -25 c-17 -21
-57 -19 -69 3 -8 16 -6 18 18 14 17 -2 32 2 42 14 13 16 14 16 17 0 2 -9 -2
-23 -8 -31z m418 9 c1 -16 4 -50 6 -76 3 -27 0 -48 -5 -48 -5 0 -9 11 -9 25 0
14 -4 25 -10 25 -5 0 -10 5 -10 11 0 5 4 7 10 4 11 -7 2 23 -12 42 -5 7 -5 14
1 17 6 4 7 14 4 23 -4 11 -2 14 8 11 8 -3 15 -18 17 -34z m-924 2 c8 3 18 -7
26 -27 l14 -32 17 22 c22 27 27 26 39 -1 18 -41 51 -93 68 -105 21 -17 64 -16
105 0 39 17 63 12 46 -9 -6 -8 -15 -12 -19 -9 -4 3 -7 -3 -6 -12 3 -42 -151
-109 -266 -116 -50 -3 -58 -1 -58 14 0 10 -16 27 -35 39 -19 12 -35 25 -35 30
0 20 93 29 105 10 3 -5 13 -10 20 -10 23 0 6 27 -25 40 -16 7 -43 25 -60 42
-25 23 -29 32 -20 43 9 11 9 23 0 49 -16 49 -7 59 36 41 19 -8 40 -12 48 -9z
m656 -2 c0 -19 -8 -29 -37 -42 l-38 -16 30 -3 c55 -6 73 -13 79 -30 9 -23 -39
-63 -76 -63 -15 0 -28 -4 -28 -10 0 -5 12 -10 26 -10 36 0 64 -17 64 -40 0
-11 -4 -20 -10 -20 -5 0 -10 -11 -10 -25 0 -35 -14 -31 -25 8 -8 24 -21 37
-57 55 -36 17 -48 28 -48 45 0 16 -11 27 -38 39 -36 17 -97 98 -73 98 5 0 12
-8 15 -18 9 -27 47 -59 79 -68 26 -6 29 -4 27 17 -4 43 0 48 53 79 63 36 67
37 67 4z m-256 1 c-4 -8 -8 -15 -10 -15 -2 0 -4 7 -4 15 0 8 4 15 10 15 5 0 7
-7 4 -15z m914 -8 c23 9 12 -6 -16 -21 -32 -16 -58 -7 -49 18 5 12 12 14 29 7
13 -4 29 -6 36 -4z m-1012 -42 c0 -14 -4 -25 -8 -25 -6 0 -5 25 1 48 3 10 7
-2 7 -23z m464 15 c0 -5 -4 -10 -10 -10 -5 0 -10 5 -10 10 0 6 5 10 10 10 6 0
10 -4 10 -10z m210 1 c0 -11 -31 -24 -39 -16 -3 3 1 10 9 15 19 12 30 12 30 1z
m80 -31 c0 -11 -4 -20 -9 -20 -5 0 -7 9 -4 20 3 11 7 20 9 20 2 0 4 -9 4 -20z
m-685 -37 c-11 -74 -8 -116 10 -130 33 -23 85 3 85 43 0 13 -2 24 -4 24 -2 0
-11 3 -20 6 -11 4 -19 -2 -26 -21 -5 -14 -14 -23 -20 -20 -15 9 6 42 31 50 44
14 81 -64 45 -94 -28 -23 -71 -29 -105 -15 -31 13 -33 16 -28 56 5 46 29 148
35 148 2 0 1 -21 -3 -47z m397 7 c-12 -12 -22 -18 -22 -14 0 12 33 45 38 39 3
-3 -4 -14 -16 -25z m123 -34 c12 -8 29 -29 38 -48 9 -18 17 -28 18 -23 0 6 2
23 2 40 2 20 10 34 29 44 15 9 30 12 35 7 4 -5 4 -10 -2 -13 -37 -14 -39 -20
-20 -78 14 -47 15 -59 4 -66 -19 -11 -24 -2 -9 16 14 17 0 21 -17 4 -17 -17
-39 -4 -66 38 -34 52 -66 85 -78 78 -10 -7 -13 8 -3 18 9 8 43 0 69 -17z m400
-2 c-71 -61 -81 -70 -99 -98 -11 -17 -18 -48 -19 -78 0 -36 -3 -45 -10 -33
-21 38 24 151 69 176 13 7 24 16 24 21 0 4 6 8 14 8 7 0 19 7 26 15 7 8 15 15
19 15 3 0 -7 -12 -24 -26z m-59 -7 c4 -4 -5 -7 -19 -7 -15 0 -27 4 -27 10 0
11 35 8 46 -3z m-446 -39 c14 -26 13 -29 -7 -49 -12 -13 -28 -19 -37 -16 -23
9 -20 26 3 20 43 -11 37 49 -7 66 l-27 10 30 -2 c20 -1 34 -10 45 -29z m573
-19 c9 -12 17 -37 17 -56 0 -36 -40 -127 -47 -106 -2 6 3 26 12 43 22 43 22
86 0 110 -24 27 -49 25 -65 -4 -18 -36 -15 -74 9 -107 12 -16 17 -29 12 -29
-5 0 -19 13 -30 29 -60 84 27 199 92 120z m-243 -27 c18 -4 31 -23 24 -34 -3
-4 -13 -4 -23 2 -41 21 -54 -40 -22 -103 26 -51 12 -46 -20 6 -38 64 -42 87
-18 127 18 29 23 32 33 20 6 -8 18 -16 26 -18z m-562 0 c9 -6 6 -12 -13 -20
-58 -27 -8 -77 81 -81 32 -1 65 -6 75 -11 22 -12 29 -42 15 -62 -15 -20 -114
-49 -122 -36 -12 19 26 42 79 47 5 1 5 5 2 11 -3 5 -25 7 -48 4 -51 -7 -102
10 -93 31 3 9 0 15 -9 15 -17 0 -35 30 -31 54 3 19 32 56 43 56 5 0 14 -4 21
-8z m326 -8 c24 -9 19 -22 -6 -20 -18 1 -22 -4 -20 -21 2 -13 -2 -23 -7 -23
-6 0 -11 13 -11 28 0 40 11 49 44 36z m-609 -50 c0 -16 5 -29 10 -29 6 0 9 3
8 8 -2 4 1 7 6 7 6 0 9 -9 8 -19 -1 -13 -7 -18 -20 -15 -17 3 -19 -2 -14 -58
4 -35 12 -68 21 -76 8 -9 40 -17 70 -20 31 -2 56 -8 56 -12 0 -18 -31 -31 -74
-32 -49 -1 -63 -13 -72 -65 -3 -18 -1 -23 8 -17 10 6 10 5 1 -7 -16 -19 -14
-349 3 -443 17 -98 29 -124 59 -132 14 -3 135 -4 268 -1 288 5 334 15 434 96
53 43 63 48 74 35 10 -13 9 -22 -6 -52 -43 -83 -106 -172 -122 -173 -56 -5
-113 -3 -113 3 0 5 27 8 60 8 49 0 61 3 70 20 10 19 1 28 -14 13 -10 -11
-1027 -10 -1023 1 2 5 26 15 55 22 29 8 64 21 78 31 52 34 54 50 54 480 1 219
4 403 8 409 10 15 85 54 97 50 6 -1 10 -16 10 -32z m26 3 c-10 -9 -11 -8 -5 6
3 10 9 15 12 12 3 -3 0 -11 -7 -18z m-366 -20 c2 -36 -19 -29 -23 7 -3 20 0
27 9 24 7 -2 14 -17 14 -31z m465 8 c0 -3 -9 -14 -20 -25 -16 -16 -18 -25 -11
-39 10 -18 34 -24 144 -39 l48 -7 -56 -53 c-94 -90 -133 -168 -140 -279 -5
-84 10 -142 46 -178 27 -29 39 -65 21 -65 -4 0 -17 7 -30 15 -21 16 -21 15
-17 -22 5 -36 -7 -74 -20 -62 -13 13 -18 109 -6 123 8 10 8 21 1 40 -15 41
-18 155 -5 211 18 77 60 150 122 211 62 60 64 58 -37 33 -56 -13 -111 -18
-105 -9 6 9 93 26 110 21 5 -1 7 1 2 5 -4 4 -18 9 -30 11 -37 5 -69 26 -79 53
-8 20 -5 28 12 42 21 17 50 24 50 13z m387 -15 c-3 -11 -1 -20 3 -20 5 0 16
-7 25 -16 15 -15 14 -18 -5 -40 -12 -12 -19 -27 -16 -32 8 -13 -15 -21 -38
-13 -17 7 -17 8 -2 24 10 9 14 17 10 17 -3 0 -1 7 6 15 10 12 7 17 -14 26 -42
19 -34 59 12 59 19 0 23 -4 19 -20z m295 -80 c35 -47 81 -107 101 -134 37 -48
61 -86 54 -86 -2 0 -19 21 -38 48 -18 26 -46 61 -60 77 -15 17 -44 53 -65 80
-21 28 -44 56 -51 63 -7 8 -18 23 -24 34 -25 46 22 0 83 -82z m-177 -131 c0
-104 -3 -189 -7 -189 -3 0 -14 23 -23 50 -22 66 -57 107 -103 120 -20 5 -100
10 -177 10 l-139 0 21 22 c21 20 33 22 150 23 167 3 209 23 248 123 10 24 20
40 24 37 3 -4 6 -92 6 -196z m-823 135 c23 -54 13 -81 -35 -88 -108 -17 -122
-13 -85 27 18 18 29 22 48 16 37 -10 50 -10 50 1 0 5 -11 12 -25 16 -28 7 -34
31 -10 40 8 4 15 15 15 26 0 29 20 11 42 -38z m856 -14 c1 -21 -2 -41 -6 -44
-5 -3 -9 21 -10 52 -1 32 2 51 7 44 4 -7 8 -30 9 -52z m-632 25 c1 -8 -2 -15
-6 -15 -5 0 -8 9 -7 20 1 21 10 18 13 -5z m960 -31 c-4 -14 -9 -24 -12 -21 -3
2 -2 17 2 31 3 15 9 25 11 22 3 -3 2 -17 -1 -32z m-1416 11 c7 -9 10 -18 6
-22 -3 -4 -12 2 -20 12 -17 24 -31 4 -28 -42 2 -19 -2 -33 -9 -33 -6 0 -9 6
-6 13 2 6 0 22 -4 34 -15 40 34 70 61 38z m1368 -6 c-16 -11 -28 -27 -28 -35
0 -9 -5 -12 -10 -9 -15 9 7 44 33 55 34 13 34 11 5 -11z m162 -33 c0 -18 -6
-39 -12 -48 -16 -19 -46 -30 -53 -19 -2 5 6 12 19 15 29 7 41 37 27 65 -15 27
-14 31 4 25 9 -4 15 -19 15 -38z m-308 -24 c24 -17 55 -43 69 -59 27 -29 64
-83 57 -83 -2 0 -33 29 -70 64 -39 38 -87 73 -117 86 -28 13 -51 29 -51 36 0
12 5 12 35 0 19 -8 54 -28 77 -44z m264 37 c19 -22 19 -22 -3 -10 -13 6 -23
16 -23 21 0 15 5 12 26 -11z m-96 -41 c0 -6 -7 -5 -15 2 -8 7 -15 17 -15 22 0
6 7 5 15 -2 8 -7 15 -17 15 -22z m33 -41 c-5 -47 -2 -57 20 -83 21 -24 29 -27
44 -18 10 6 21 24 24 40 l7 29 1 -32 c1 -33 -20 -63 -44 -63 -41 0 -73 78 -61
145 10 53 15 42 9 -18z m-333 33 c0 -5 -4 -10 -10 -10 -5 0 -10 5 -10 10 0 6
5 10 10 10 6 0 10 -4 10 -10z m52 -16 c-12 -8 -22 -22 -22 -30 0 -8 -4 -14
-10 -14 -11 0 -14 43 -3 53 3 4 18 7 32 7 l25 0 -22 -16z m-56 -54 c1 -28 -2
-46 -6 -40 -7 12 -5 90 3 90 2 0 3 -23 3 -50z m-831 0 c-12 -14 -16 -28 -12
-50 4 -17 2 -30 -3 -30 -11 0 -14 83 -3 93 3 4 13 7 21 7 12 0 12 -4 -3 -20z
m945 -25 c0 -13 14 -59 32 -102 22 -57 31 -94 31 -138 1 -80 -9 -116 -29 -108
-8 3 -14 13 -13 22 5 29 -11 59 -52 96 -22 20 -38 42 -36 49 3 6 -1 20 -9 31
-22 30 -18 48 7 34 17 -9 23 -8 30 2 6 11 12 10 27 -4 37 -34 35 -16 -2 22
-35 36 -38 42 -28 68 5 15 13 36 16 46 8 24 26 12 26 -18z m-1094 -10 c3 -17
1 -24 -6 -20 -5 3 -10 18 -10 32 0 32 9 25 16 -12z m419 25 c-3 -5 -17 -10
-30 -10 -13 0 -27 -4 -30 -10 -3 -5 -12 -10 -18 -10 -7 0 -6 4 3 10 8 5 11 10
5 11 -10 1 40 16 63 18 7 0 10 -3 7 -9z m334 1 c24 0 42 -3 39 -7 -8 -8 -278
-10 -278 -2 0 3 5 8 10 10 9 3 121 3 229 -1z m-687 -23 c8 -7 25 -31 38 -52
20 -33 21 -37 5 -29 -13 8 -22 6 -36 -8 -22 -22 -61 -26 -53 -5 3 7 16 19 30
26 13 8 20 16 15 19 -13 8 -33 61 -23 61 5 0 15 -6 24 -12z m409 -49 c-17 -62
-9 -92 27 -109 45 -21 41 -40 -8 -40 -34 0 -41 4 -46 25 -8 32 1 103 17 138
16 36 21 29 10 -14z m-123 6 c-3 -3 -9 2 -12 12 -6 14 -5 15 5 6 7 -7 10 -15
7 -18z m442 6 c-5 -11 -15 -23 -20 -26 -14 -9 -12 19 2 33 19 19 30 14 18 -7z
m-834 -6 c10 -8 14 -15 7 -15 -19 0 -43 11 -43 21 0 13 14 11 36 -6z m1022
-50 c1 -36 -2 -65 -6 -65 -7 0 -9 112 -3 128 4 10 6 -7 9 -63z m42 55 c0 -5
-2 -10 -4 -10 -3 0 -8 5 -11 10 -3 6 -1 10 4 10 6 0 11 -4 11 -10z m227 -10
c12 0 39 -68 68 -174 37 -136 41 -161 25 -171 -5 -3 -10 1 -10 10 0 30 -52
200 -73 237 -21 39 -46 54 -84 49 -27 -3 -28 2 -7 39 15 25 20 27 48 19 17 -5
32 -9 33 -9z m-577 -5 c16 -8 36 -12 44 -9 18 7 22 -2 30 -63 l6 -41 -36 3
-36 2 4 -38 c3 -32 0 -40 -20 -49 -35 -15 -55 -5 -80 39 -26 45 -28 67 -7 75
12 4 12 11 -6 40 -11 20 -18 40 -14 46 9 15 82 12 115 -5z m-530 -66 c-5 -16
-7 -29 -4 -29 2 0 -2 -13 -11 -30 -9 -16 -18 -30 -21 -30 -2 0 0 10 7 21 6 12
12 46 12 75 2 43 4 51 14 38 7 -10 8 -26 3 -45z m206 12 c-1 -22 -6 -44 -11
-48 -4 -4 -5 -3 -1 4 3 6 2 15 -4 18 -7 4 -7 11 -2 18 5 7 8 22 7 34 -1 12 2
20 6 18 3 -3 6 -23 5 -44z m-356 29 c0 -5 -4 -10 -10 -10 -5 0 -10 -8 -10 -17
0 -13 -3 -14 -12 -5 -8 8 -8 15 2 27 14 17 30 20 30 5z m1347 -57 c12 -38 24
-81 27 -96 4 -15 10 -26 15 -23 4 3 3 -13 -3 -35 l-10 -39 -14 47 c-7 27 -22
77 -32 112 -11 35 -20 73 -20 83 0 38 17 16 37 -49z m-1449 45 c18 -18 14 -30
-5 -20 -50 26 -58 -27 -8 -53 45 -25 38 -30 -13 -10 -48 20 -58 39 -37 71 17
26 44 31 63 12z m982 -19 c0 -4 14 -21 32 -38 26 -24 29 -32 20 -44 -22 -26
-51 -27 -68 -2 -8 13 -27 26 -42 30 -19 5 -22 9 -13 15 8 5 11 15 7 26 -4 9
-2 20 4 24 14 9 60 0 60 -11z m522 -59 c-6 -17 -9 -37 -6 -44 3 -8 1 -17 -5
-21 -7 -4 -11 11 -11 44 0 30 5 51 13 54 19 7 20 1 9 -33z m-1316 6 c19 -19
18 -40 -2 -57 -15 -12 -16 -11 -11 6 8 23 0 37 -28 53 -19 11 -19 11 3 12 13
0 30 -6 38 -14z m270 -36 c0 -16 -4 -30 -8 -30 -4 0 -6 10 -4 23 3 12 5 25 5
30 1 4 3 7 5 7 2 0 3 -13 2 -30z m914 -5 c16 -26 19 -39 11 -52 -10 -17 -12
-16 -15 8 0 7 -9 17 -19 23 -27 16 -54 -22 -62 -89 -4 -30 -10 -53 -14 -50
-10 5 18 167 31 183 19 22 46 13 68 -23z m-1327 9 c-8 -4 -6 -11 8 -25 10 -10
19 -30 19 -43 0 -31 -20 -86 -31 -86 -5 0 -9 -4 -9 -9 0 -5 10 -7 23 -4 21 4
21 4 2 -8 -25 -16 -50 -44 -76 -86 -11 -18 -22 -33 -25 -33 -9 0 12 39 42 76
18 23 31 44 28 47 -3 3 4 23 15 46 25 48 26 65 5 85 -17 18 -32 20 -53 7 -12
-8 -12 -12 -2 -25 10 -12 11 -19 2 -30 -6 -7 -9 -21 -5 -30 9 -23 -12 -20 -36
6 -49 53 -4 109 95 116 6 0 5 -2 -2 -4z m512 -46 c6 -13 18 -22 28 -20 9 2 17
-2 17 -8 0 -14 -35 -13 -48 3 -12 15 -27 65 -17 55 4 -4 13 -18 20 -30z m411
-9 c12 -10 8 -39 -7 -49 -4 -3 -3 -12 2 -20 8 -11 12 -12 16 -2 3 8 10 5 23
-10 l19 -23 -2 23 c-1 12 -4 22 -7 22 -3 0 -11 10 -19 23 -13 22 -13 22 12 -2
14 -13 26 -26 25 -30 -1 -3 4 -17 10 -31 27 -57 42 -161 33 -222 -4 -26 -22 3
-50 77 -18 46 -37 87 -42 90 -12 8 -13 9 20 -81 39 -107 25 -146 -18 -49 -20
45 -69 122 -95 147 -27 27 -46 78 -40 103 12 50 79 69 120 34z m68 -5 c4 -15
5 -29 2 -32 -10 -10 -45 29 -39 44 9 23 30 16 37 -12z m-579 -59 c0 -35 -2
-62 -4 -59 -3 3 -6 34 -6 69 0 35 2 62 4 59 3 -3 6 -34 6 -69z m-165 32 c0
-20 -14 -35 -42 -46 -17 -6 -29 -7 -33 -1 -4 6 3 10 13 10 26 0 43 22 32 40
-15 24 -11 31 10 20 11 -6 20 -16 20 -23z m438 -1 c15 -14 15 -18 2 -26 -18
-11 -8 -22 23 -24 27 -1 26 -8 -6 -43 -22 -25 -47 -30 -47 -10 0 6 -10 0 -21
-15 -30 -41 -49 -36 -49 11 0 22 5 43 11 47 6 3 8 16 5 27 -12 46 46 69 82 33z
m456 18 c9 -3 16 -15 16 -25 0 -17 -3 -18 -20 -7 -11 7 -20 18 -20 25 0 15 2
15 24 7z m-1025 -7 c-2 -1 -13 -9 -24 -17 -19 -14 -19 -14 -6 3 7 9 18 17 24
17 6 0 8 -1 6 -3z m981 -47 c11 -11 24 -20 29 -20 18 0 18 -26 0 -73 -26 -66
-24 -68 19 -18 23 27 44 42 55 40 13 -3 -1 -23 -60 -83 l-78 -79 -3 31 c-2 17
3 53 11 79 13 42 13 54 1 81 -14 34 -23 39 -42 20 -9 -9 -12 -8 -12 5 0 16 25
36 48 37 6 0 21 -9 32 -20z m371 -42 c7 -176 1 -277 -17 -314 -11 -22 -28 -41
-41 -44 -19 -4 -73 -60 -59 -60 3 0 22 9 41 19 43 23 73 17 86 -17 14 -37 -10
-48 -36 -16 l-20 25 -53 -28 c-64 -33 -84 -23 -48 26 22 29 23 35 11 58 -11
21 -11 33 2 76 11 37 12 56 4 74 -24 52 -55 8 -42 -59 4 -25 6 -55 4 -68 -4
-29 -41 -70 -62 -70 -10 0 -4 11 17 31 36 35 37 43 18 117 -17 64 -14 91 15
115 26 21 38 21 67 1 12 -8 26 -13 32 -9 12 7 32 -30 30 -58 -4 -41 1 -53 11
-28 5 14 7 36 5 50 -21 105 -22 92 1 159 20 59 32 67 34 20z m-1287 -5 c67
-49 65 -142 -6 -204 -10 -9 -18 -21 -18 -28 0 -6 -5 -11 -11 -11 -5 0 -7 5 -4
10 4 6 -3 9 -17 6 -78 -12 -138 85 -89 145 19 24 86 37 78 16 -2 -7 4 -23 15
-36 22 -28 18 -37 -10 -22 -16 8 -25 7 -43 -8 l-23 -18 28 -27 c16 -17 33 -25
42 -22 9 3 21 6 27 6 20 0 57 65 59 103 1 29 -5 43 -30 67 -31 29 -57 36 -121
30 -13 -1 -21 3 -17 8 10 17 112 6 140 -15z m1179 -21 c9 -9 18 -30 22 -47 l6
-30 -20 25 c-56 68 -77 76 -87 35 -7 -30 -24 -23 -24 10 0 46 64 50 103 7z
m-1454 5 c6 -8 9 -24 6 -37 -5 -25 -18 -44 -15 -20 5 32 -1 50 -16 50 -8 0
-12 5 -9 10 8 14 20 13 34 -3z m249 0 c6 -5 12 -18 12 -29 0 -20 -2 -19 -25 6
-14 15 -25 29 -25 31 0 5 24 0 38 -8z m650 -11 c3 -3 -6 -17 -19 -30 l-25 -24
-20 22 c-28 32 -20 47 23 42 19 -3 38 -7 41 -10z m-141 -61 c0 -16 0 -16 -37
-20 -30 -3 -50 4 -50 17 0 6 6 5 15 -2 12 -10 19 -9 37 3 29 20 35 21 35 2z
m173 -34 c5 -11 10 -29 10 -40 0 -26 -50 -41 -99 -30 -25 5 -31 5 -22 -4 14
-14 135 -19 169 -6 18 7 27 6 33 -3 4 -7 6 -14 4 -16 -12 -12 -172 -9 -218 4
-75 22 -136 60 -134 83 1 20 11 19 62 -10 33 -19 92 -34 115 -30 27 5 51 33
44 53 -8 25 22 24 36 -1z m-842 -33 c19 -19 14 -28 -17 -28 -32 0 -41 -14 -48
-75 -2 -22 -8 -43 -12 -47 -6 -7 -7 21 -2 93 1 21 39 69 55 69 6 0 17 -5 24
-12z m514 -60 c-6 -6 -9 2 -7 24 5 45 7 48 12 14 3 -16 0 -33 -5 -38z m-22 37
c0 -8 -4 -15 -10 -15 -5 0 -7 7 -4 15 4 8 8 15 10 15 2 0 4 -7 4 -15z m139
-33 c3 -1 0 -7 -7 -14 -8 -8 -14 -4 -23 15 -7 15 -16 27 -21 27 -4 0 -8 5 -8
12 0 6 12 1 28 -13 15 -13 29 -25 31 -27z m-577 -38 c3 -3 -5 -16 -18 -29 -63
-63 42 -144 186 -145 63 0 85 5 138 30 72 34 79 36 63 16 -6 -7 -39 -26 -74
-42 -52 -24 -75 -28 -147 -28 -47 -1 -107 2 -135 6 -154 21 -155 21 -155 2 0
-13 -3 -15 -11 -7 -16 16 -1 52 26 59 13 3 39 -3 63 -15 58 -29 63 -26 19 12
-27 23 -39 43 -44 69 -5 34 -3 39 28 57 35 21 51 25 61 15z m78 -4 c0 -5 -5
-10 -11 -10 -5 0 -7 5 -4 10 3 6 8 10 11 10 2 0 4 -4 4 -10z m1108 -91 c-2 -6
-8 -10 -13 -10 -5 0 -11 4 -13 10 -2 6 4 11 13 11 9 0 15 -5 13 -11z m-45 -13
c7 -17 -22 -31 -36 -17 -5 5 -6 14 -3 20 10 16 33 14 39 -3z m-678 -25 c-4
-14 1 -20 20 -25 14 -4 25 -13 25 -22 0 -13 -10 -15 -57 -10 -32 3 -59 5 -61
5 -2 1 -1 5 3 11 4 6 15 6 31 0 33 -13 67 -13 59 0 -3 5 -12 7 -20 4 -20 -8
-30 22 -15 41 17 20 23 19 15 -4z m60 9 c3 -5 1 -10 -4 -10 -6 0 -11 5 -11 10
0 6 2 10 4 10 3 0 8 -4 11 -10z m-308 -19 c9 -15 9 -19 0 -17 -21 3 -38 17
-32 27 9 14 19 11 32 -10z m604 2 c8 2 20 6 27 11 7 4 16 6 19 3 7 -8 -47 -41
-74 -45 -19 -2 -23 2 -23 23 0 22 3 24 18 16 10 -5 25 -9 33 -8z m99 11 c0
-14 -59 -66 -70 -62 -9 3 -1 15 21 36 32 30 49 39 49 26z m144 -6 c-3 -5 -9
-6 -14 -3 -4 3 -7 -9 -6 -27 1 -30 -1 -32 -38 -36 -29 -3 -43 1 -52 13 -15 20
-8 45 12 45 11 0 12 -4 4 -19 -7 -14 -6 -21 3 -24 21 -7 47 5 47 22 0 9 5 22
10 27 13 13 41 14 34 2z m-691 -34 c-11 -17 -19 -22 -21 -14 -3 7 3 19 14 27
26 19 27 17 7 -13z m792 5 c10 -15 -1 -23 -20 -15 -9 3 -13 10 -10 16 8 13 22
13 30 -1z m-378 -33 c4 -3 -18 -6 -48 -5 -37 0 -48 3 -34 8 22 9 72 7 82 -3z"/>
<path d="M700 1580 c0 -14 42 -50 58 -50 8 0 1 13 -18 30 -35 32 -40 35 -40
20z"/>
<path d="M670 1541 c0 -10 62 -41 83 -41 9 0 19 -4 22 -10 4 -6 -6 -10 -24
-10 -16 0 -33 -5 -36 -10 -4 -7 3 -9 22 -5 63 14 92 27 119 51 l29 26 -32 -16
c-43 -22 -96 -20 -143 4 -22 11 -40 16 -40 11z"/>
<path d="M1177 1588 c-7 -4 3 -8 26 -8 20 0 37 4 37 8 0 10 -46 10 -63 0z"/>
<path d="M1650 530 c-6 -11 -8 -20 -6 -20 3 0 10 9 16 20 6 11 8 20 6 20 -3 0
-10 -9 -16 -20z"/>
<path d="M1327 812 c10 -17 21 -28 26 -25 10 6 -14 45 -31 51 -7 2 -5 -9 5
-26z"/>
<path d="M1095 630 c3 -5 16 -15 28 -21 22 -12 22 -12 3 10 -19 21 -43 30 -31
11z"/>
<path d="M1150 600 c0 -5 5 -10 11 -10 5 0 7 5 4 10 -3 6 -8 10 -11 10 -2 0
-4 -4 -4 -10z"/>
</g>
</svg>
